<svg width="559" height="500" viewBox="0 0 559 500" fill="none" xmlns="http://www.w3.org/2000/svg">
<g clip-path="url(#clip0_6_63)">
<rect width="559" height="500" fill="#0F0426"/>
<path d="M412.772 200.474C412.249 200.532 412.241 202.007 412.224 202.442C412.189 203.324 411.594 204.32 411.494 205.22C411.413 205.949 411.144 207.128 410.723 207.735C410.339 208.29 410.399 209.637 410.399 210.331C410.399 212.43 409.486 214.435 409.486 216.517C409.486 217.074 409.121 217.481 409.121 218.078C409.121 218.63 409.016 219.093 408.949 219.63C408.741 221.293 408.938 223.075 408.938 224.751C408.938 226 409.1 227.528 408.715 228.726C408.297 230.027 407.801 231.288 407.438 232.559C406.605 235.475 405.58 238.526 405.278 241.554C405.121 243.122 404.753 244.778 404.284 246.279C403.889 247.544 403.658 248.812 403.189 250.031C402.786 251.077 402.657 252.449 402.377 253.519C402.106 254.56 402.144 255.636 401.82 256.673C401.51 257.665 401.036 258.584 400.907 259.614" stroke="#EE96F9" stroke-width="0.2" stroke-linecap="round"/>
<path d="M402.789 251.672C402.782 251.77 402.743 251.871 402.719 251.966C402.71 252.006 402.702 252.047 402.691 252.087C402.684 252.111 402.689 252.139 402.684 252.164C402.678 252.194 402.668 252.23 402.668 252.26C402.667 252.302 402.664 252.344 402.659 252.385C402.652 252.44 402.651 252.499 402.639 252.552C402.62 252.644 402.632 252.746 402.632 252.84C402.632 252.908 402.628 252.982 402.616 253.048C402.611 253.082 402.607 253.115 402.602 253.148C402.595 253.195 402.597 253.245 402.588 253.291C402.572 253.367 402.554 253.442 402.54 253.519" stroke="#EE96F9" stroke-width="0.3" stroke-linecap="round"/>
<path d="M402.264 254C402.153 254.333 402.018 254.662 401.946 255.008C401.927 255.099 401.927 255.193 401.909 255.284C401.871 255.471 401.835 255.657 401.775 255.839C401.753 255.906 401.723 255.969 401.697 256.034C401.677 256.088 401.662 256.143 401.639 256.195C401.612 256.253 401.574 256.316 401.536 256.367C401.474 256.454 401.431 256.555 401.378 256.647C401.347 256.7 401.318 256.757 401.288 256.811C401.257 256.866 401.22 256.916 401.191 256.971C401.159 257.035 401.126 257.097 401.101 257.164C401.085 257.206 401.067 257.249 401.043 257.287C401.025 257.316 401.023 257.357 401 257.379" stroke="#EE96F9" stroke-width="0.3" stroke-linecap="round"/>
<path d="M401.728 256.144C401.674 256.328 401.61 256.512 401.569 256.7C401.546 256.806 401.519 256.933 401.53 257.042C401.531 257.054 401.533 257.045 401.538 257.035C401.591 256.928 401.627 256.806 401.663 256.694C401.738 256.457 401.809 256.217 401.868 255.975C401.875 255.946 401.909 255.841 401.899 255.795C401.897 255.789 401.89 255.803 401.888 255.809C401.859 255.904 401.836 256.002 401.811 256.098C401.805 256.12 401.736 256.309 401.753 256.349C401.755 256.356 401.76 256.338 401.763 256.332C401.782 256.292 401.813 256.206 401.825 256.173C401.859 256.08 401.904 255.98 401.92 255.881C401.933 255.797 401.901 256.05 401.893 256.135C401.881 256.261 401.864 256.392 401.871 256.519C401.873 256.575 401.905 256.638 401.924 256.69C401.956 256.778 401.986 256.877 402.037 256.957C402.047 256.971 402.054 256.988 402.059 256.958C402.085 256.776 402.079 256.586 402.086 256.402C402.087 256.382 402.074 256.227 402.076 256.33C402.08 256.478 402.1 256.625 402.118 256.772C402.121 256.796 402.124 256.819 402.126 256.843C402.132 256.92 402.12 256.835 402.12 256.833C402.102 256.66 402.096 256.487 402.086 256.314C402.066 255.948 402.086 256.308 402.072 256.051C402.071 256.037 402.07 256.023 402.07 256.008C402.068 255.982 402.069 255.993 402.07 256.012C402.094 256.289 402.141 256.563 402.192 256.836C402.199 256.871 402.206 256.906 402.213 256.942C402.214 256.948 402.214 256.968 402.216 256.962C402.232 256.916 402.216 256.865 402.215 256.817C402.21 256.564 402.207 256.31 402.204 256.057C402.203 255.925 402.208 255.789 402.195 255.658C402.195 255.657 402.171 255.569 402.169 255.591C402.163 255.64 402.178 255.699 402.184 255.747C402.201 255.884 402.215 256.022 402.238 256.158C402.255 256.259 402.277 256.359 402.293 256.46C402.305 256.536 402.313 256.61 402.33 256.685C402.349 256.769 402.36 256.86 402.36 256.946" stroke="#EE96F9" stroke-width="0.3" stroke-linecap="round"/>
<path d="M402.502 253.708C402.492 253.764 402.465 253.818 402.449 253.872C402.431 253.934 402.414 253.997 402.399 254.06C402.385 254.117 402.37 254.175 402.36 254.234C402.337 254.368 402.317 254.5 402.317 254.636C402.317 254.983 402.303 255.329 402.317 255.676C402.32 255.748 402.294 255.819 402.298 255.893C402.302 255.971 402.304 256.049 402.314 256.127C402.334 256.283 402.392 256.43 402.42 256.583C402.439 256.689 402.466 256.803 402.466 256.911C402.466 256.991 402.466 257.232 402.466 257.152C402.466 257.07 402.496 256.994 402.509 256.914C402.522 256.837 402.518 256.755 402.509 256.678C402.499 256.6 402.491 256.518 402.468 256.443C402.445 256.368 402.438 256.289 402.431 256.211C402.423 256.13 402.396 256.053 402.395 255.971C402.394 255.87 402.381 255.779 402.356 255.682C402.333 255.589 402.324 255.48 402.324 255.385C402.324 255.362 402.317 255.353 402.317 255.381C402.317 255.44 402.311 255.5 402.307 255.558C402.298 255.666 402.293 255.788 402.307 255.896C402.325 256.03 402.365 256.162 402.387 256.296C402.407 256.424 402.417 256.553 402.417 256.683" stroke="#EE96F9" stroke-width="0.3" stroke-linecap="round"/>
<path d="M408.982 226.436C408.982 226.544 409.011 226.696 408.978 226.801C408.952 226.887 408.93 226.985 408.93 227.073" stroke="#EE96F9" stroke-width="0.1" stroke-linecap="round"/>
<path d="M205.621 356.512C205.768 356.468 205.922 356.451 206.074 356.428C206.218 356.406 206.362 356.388 206.506 356.364C206.591 356.35 206.674 356.34 206.759 356.34C206.828 356.34 206.624 356.359 206.556 356.37C206.335 356.405 206.113 356.435 205.892 356.472C205.77 356.492 205.643 356.499 205.52 356.504C205.471 356.505 205.421 356.504 205.373 356.512C205.369 356.512 205.365 356.513 205.362 356.514C205.36 356.515 205.366 356.514 205.368 356.514C205.391 356.51 205.436 356.501 205.453 356.497C205.673 356.45 205.886 356.378 206.105 356.33C206.245 356.3 206.389 356.269 206.533 356.263C206.637 356.258 206.74 356.274 206.844 356.274C206.847 356.274 206.854 356.274 206.852 356.274C206.841 356.274 206.831 356.272 206.821 356.271C206.756 356.263 206.689 356.257 206.623 356.256C206.536 356.254 206.449 356.267 206.363 356.282C206.307 356.292 206.252 356.307 206.196 356.317C206.129 356.33 206.059 356.335 205.991 356.344C205.843 356.362 205.695 356.369 205.547 356.387C205.507 356.391 205.453 356.39 205.415 356.404C205.41 356.406 205.41 356.41 205.415 356.41C205.433 356.412 205.454 356.404 205.47 356.398C205.583 356.361 205.691 356.317 205.807 356.29C205.919 356.264 206.029 356.239 206.142 356.224C206.355 356.196 206.998 356.196 206.784 356.196C206.708 356.196 206.636 356.158 206.559 356.156C206.451 356.155 206.348 356.181 206.24 356.188C206.062 356.199 205.879 356.219 205.706 356.262C205.583 356.293 205.465 356.339 205.342 356.368C205.301 356.377 205.262 356.391 205.221 356.396C205.198 356.399 205.202 356.391 205.22 356.376C205.27 356.336 205.337 356.316 205.4 356.308C205.528 356.292 205.657 356.287 205.786 356.285C205.839 356.285 205.891 356.279 205.944 356.275C205.971 356.274 205.998 356.271 206.025 356.27C206.03 356.27 206.035 356.27 206.032 356.27C206.02 356.27 206.02 356.27 206.004 356.27C205.845 356.278 205.687 356.295 205.528 356.297C205.449 356.298 205.37 356.303 205.291 356.31C205.248 356.314 205.203 356.313 205.161 356.322C205.128 356.33 205.1 356.349 205.068 356.359C205.054 356.364 205.08 356.361 205.083 356.359C205.203 356.311 205.334 356.282 205.461 356.266C205.592 356.249 205.722 356.222 205.855 356.214C205.949 356.208 206.041 356.188 206.136 356.184C206.202 356.181 206.268 356.178 206.334 356.167C206.392 356.158 206.453 356.16 206.512 356.155C206.587 356.148 206.662 356.134 206.737 356.133C206.806 356.132 206.875 356.133 206.943 356.133C207.047 356.133 207.147 356.126 207.25 356.114" stroke="#EE96F9" stroke-width="0.1" stroke-linecap="round"/>
<path d="M353.183 331.751C353.4 331.542 353.665 331.397 353.89 331.197C353.999 331.099 354.125 331.017 354.229 330.916C354.277 330.869 354.303 330.799 354.368 330.773C354.649 330.658 354.855 330.459 355.1 330.29C355.334 330.128 355.79 329.892 356.08 329.892C356.169 329.892 355.917 329.962 355.84 330.005C355.563 330.159 355.284 330.292 354.992 330.423C354.587 330.604 354.229 330.84 353.867 331.097C353.66 331.244 353.418 331.412 353.245 331.599C353.078 331.778 353.157 331.56 353.202 331.45C353.323 331.155 353.657 330.907 353.888 330.707C354.159 330.472 354.455 330.312 354.794 330.195C355.026 330.115 355.214 329.993 355.452 329.929C355.68 329.869 355.992 329.795 356.228 329.862C356.392 329.909 356.482 329.869 356.272 329.894C355.933 329.934 355.593 330.081 355.266 330.172C354.383 330.416 353.637 330.857 352.918 331.401C352.563 331.67 352.23 332.107 352.083 332.531C352.074 332.557 351.978 332.747 352.026 332.641C352.099 332.48 352.236 332.351 352.37 332.227C352.991 331.652 353.769 331.201 354.503 330.785C354.853 330.587 355.241 330.439 355.585 330.235C355.744 330.141 355.905 330.089 356.059 329.984C356.155 329.919 356.23 329.874 356.127 330.022C355.998 330.206 355.803 330.333 355.623 330.459C355.211 330.746 354.789 331.041 354.339 331.266C354.153 331.359 353.969 331.43 353.799 331.553C353.586 331.707 353.372 331.872 353.167 332.036C353.114 332.077 352.828 332.244 352.899 332.244C352.981 332.244 353.08 332.221 353.145 332.168C353.326 332.024 353.748 332.356 353.883 332.47C354.034 332.597 354.209 332.724 354.322 332.889C354.351 332.933 354.387 333.054 354.444 333.071C354.549 333.101 354.47 332.985 354.453 332.957C354.298 332.708 354.152 332.53 353.938 332.316C353.867 332.245 353.442 331.704 353.449 332.004C353.457 332.35 353.94 332.575 354.183 332.769C354.431 332.968 354.397 332.701 354.282 332.514C354.13 332.267 353.908 331.719 353.609 331.646C353.475 331.613 353.414 331.883 353.455 331.979C353.494 332.07 354.07 332.365 354.094 332.333C354.12 332.298 354.155 331.873 354.2 331.958C354.354 332.253 354.531 332.57 354.625 332.892C354.642 332.948 354.697 333.427 354.815 333.374C355.092 333.25 355.307 332.819 355.488 332.596C355.711 332.321 355.83 331.97 355.968 331.65C356.016 331.54 356.068 331.43 356.127 331.325C356.153 331.279 356.398 330.781 356.447 330.781C356.52 330.781 356.412 330.923 356.388 330.992C356.337 331.141 356.261 331.276 356.215 331.428C356.101 331.808 356.008 332.204 355.861 332.573C355.785 332.764 355.688 333.369 355.688 333.164C355.688 332.715 355.955 332.229 356.219 331.89C356.383 331.68 356.573 331.479 356.725 331.262C356.948 330.944 356.256 331.883 356.078 332.227C355.713 332.935 355.415 333.587 355.287 334.374C355.275 334.451 355.271 334.686 355.271 334.608C355.271 334.432 355.282 334.262 355.309 334.087C355.461 333.069 355.665 332.042 355.962 331.055C356.359 329.738 357.029 328.496 357.826 327.378C358.182 326.879 358.626 326.392 359.133 326.038C359.209 325.984 359.149 326.117 359.141 326.135" stroke="#EE96F9" stroke-width="0.5" stroke-linecap="round"/>
<path d="M403.086 250.503C403.086 251.01 403.076 251.52 403.048 252.021C403.035 252.264 402.972 252.49 402.972 252.742C402.972 253.741 402.972 254.74 402.972 255.74C402.972 255.979 402.992 256.226 402.97 256.465C402.944 256.75 402.875 257.186 402.669 257.392C402.632 257.429 402.669 257.29 402.669 257.238C402.669 257.151 402.669 257.063 402.669 256.975C402.669 256.623 402.646 256.272 402.622 255.921C402.59 255.452 402.555 254.993 402.555 254.523C402.555 254.324 402.591 254.131 402.622 253.935C402.636 253.85 402.702 253.783 402.707 253.711C402.71 253.652 402.737 253.381 402.648 253.522C402.558 253.662 402.543 253.835 402.517 253.994" stroke="#EE96F9" stroke-width="0.5" stroke-linecap="round"/>
<path d="M404.219 246.512C404.2 246.522 404.202 246.561 404.2 246.579C404.194 246.628 404.182 246.673 404.165 246.718C404.131 246.812 404.111 246.908 404.093 247.006C404.05 247.235 403.992 247.459 403.952 247.69C403.927 247.835 403.892 247.978 403.836 248.114C403.778 248.257 403.746 248.411 403.703 248.559C403.661 248.702 403.603 248.839 403.563 248.981C403.532 249.09 403.507 249.201 403.483 249.311C403.45 249.454 403.434 249.598 403.417 249.744C403.412 249.787 403.409 249.83 403.401 249.872C403.319 250.342 403.429 249.708 403.355 249.987" stroke="#EE96F9" stroke-width="0.5" stroke-linecap="round"/>
<path d="M408.761 223.638C408.779 224.366 408.881 225.076 408.881 225.804C408.881 226.135 408.881 226.465 408.881 226.796C408.881 227.091 408.881 227.386 408.881 227.681C408.881 227.823 408.844 228.03 408.883 228.169C408.96 228.44 408.924 228.733 408.832 228.999C408.671 229.465 408.481 229.926 408.251 230.37C408.051 230.755 407.916 231.156 407.732 231.546C407.608 231.807 407.459 232.15 407.368 232.422C407.248 232.783 407.155 233.176 407.004 233.525C406.94 233.672 406.957 233.851 406.924 234.009C406.865 234.29 406.806 234.569 406.744 234.85C406.634 235.349 406.593 235.882 406.363 236.343C406.2 236.669 406.129 237.045 406.037 237.395C405.915 237.858 405.897 238.356 405.824 238.83C405.791 239.04 405.713 239.237 405.684 239.447C405.643 239.74 405.486 240.039 405.486 240.332" stroke="#EE96F9" stroke-width="0.5" stroke-linecap="round"/>
<path d="M405.505 240.374C405.493 240.418 405.473 240.46 405.464 240.504C405.455 240.544 405.453 240.585 405.447 240.625C405.436 240.691 405.435 240.757 405.425 240.822C405.411 240.918 405.383 241.015 405.358 241.109C405.309 241.295 405.277 241.478 405.248 241.668C405.235 241.76 405.236 241.85 405.236 241.943C405.236 242.073 405.222 242.203 405.222 242.334C405.222 242.536 405.122 242.719 405.094 242.916" stroke="#EE96F9" stroke-width="0.4" stroke-linecap="round"/>
<path d="M405.009 243.015C405.009 243.148 405.011 243.281 404.985 243.412C404.965 243.506 404.941 243.595 404.917 243.688C404.889 243.801 404.863 243.915 404.835 244.028C404.798 244.185 404.761 244.341 404.761 244.502" stroke="#EE96F9" stroke-width="0.4" stroke-linecap="round"/>
<path d="M404.195 246.612C404.224 246.499 404.266 246.391 404.305 246.283C404.315 246.257 404.331 246.237 404.336 246.209C404.344 246.167 404.354 246.125 404.363 246.083C404.388 245.976 404.411 245.863 404.42 245.754C404.433 245.595 404.449 245.436 404.486 245.28C404.512 245.167 404.56 245.061 404.591 244.949C404.622 244.839 404.663 244.731 404.691 244.619C404.71 244.545 404.72 244.466 404.735 244.39C404.747 244.331 404.759 244.287 404.785 244.232C404.823 244.149 404.863 244.063 404.88 243.973C404.886 243.943 404.88 243.912 404.882 243.883C404.887 243.812 404.916 243.747 404.917 243.674C404.919 243.551 404.961 243.447 404.986 243.328C404.997 243.281 405.009 243.225 405.009 243.177C405.009 243.123 405.034 243.08 405.037 243.028C405.041 242.95 405.052 242.874 405.052 242.796" stroke="#EE96F9" stroke-width="0.4" stroke-linecap="round"/>
<path d="M406.388 250.52C406.556 250.52 406.761 250.553 406.922 250.493C406.994 250.467 407.085 250.424 407.163 250.424C407.234 250.424 407.344 250.401 407.407 250.365C407.427 250.353 407.45 250.336 407.468 250.322C407.514 250.286 407.559 250.275 407.607 250.245C407.7 250.188 407.811 250.155 407.903 250.093C407.971 250.047 408.063 250.044 408.137 250.009C408.179 249.989 408.216 249.965 408.256 249.94C408.362 249.872 408.472 249.812 408.583 249.75C408.634 249.721 408.68 249.673 408.726 249.636C408.791 249.584 408.858 249.536 408.929 249.493" stroke="#EE96F9" stroke-width="0.4" stroke-linecap="round"/>
<path d="M405.887 250.09H406.698" stroke="#EE96F9" stroke-width="0.4" stroke-linecap="round"/>
<path d="M354.418 228.772C354.539 228.893 354.619 229.061 354.709 229.202C354.771 229.3 354.883 229.426 354.973 229.5C355.022 229.54 355.048 229.59 355.092 229.633C355.117 229.659 355.104 229.52 355.1 229.505C355.08 229.431 355.05 229.384 355.005 229.324C354.957 229.26 354.94 229.172 354.916 229.097C354.886 229.005 354.887 228.912 354.86 228.822C354.835 228.737 354.924 228.876 354.93 228.883C355.002 228.973 355.07 229.064 355.138 229.156C355.162 229.188 355.175 229.254 355.216 229.264C355.26 229.275 355.196 229.147 355.193 229.139C355.159 229.06 355.109 228.986 355.077 228.906C355.049 228.836 354.987 228.795 354.96 228.718C354.908 228.568 354.938 228.617 354.99 228.708C355.024 228.77 355.096 228.801 355.12 228.875C355.139 228.935 355.219 229.023 355.264 229.07C355.325 229.132 355.383 229.196 355.424 229.273C355.427 229.278 355.46 229.348 355.44 229.332C355.373 229.279 355.281 229.263 355.205 229.223C354.941 229.083 354.815 228.843 354.632 228.618C354.571 228.542 354.515 228.464 354.464 228.381C354.43 228.325 354.413 228.34 354.419 228.396C354.432 228.51 354.51 228.605 354.55 228.709C354.574 228.77 354.572 228.848 354.59 228.913C354.62 229.016 354.661 229.115 354.704 229.214C354.771 229.37 354.824 229.522 354.885 229.68C354.904 229.732 354.922 229.788 354.947 229.837C354.961 229.864 354.971 229.84 354.963 229.821C354.892 229.662 354.78 229.52 354.704 229.362C354.663 229.277 354.609 229.198 354.56 229.118C354.549 229.101 354.525 229.03 354.503 229.023C354.461 229.011 354.445 228.913 354.425 228.875C354.394 228.819 354.403 228.776 354.386 228.718C354.371 228.666 354.393 228.828 354.418 228.875C354.567 229.162 354.743 229.43 354.888 229.72C354.938 229.82 354.994 229.928 355.06 230.016C355.121 230.098 355.176 230.18 355.233 230.263C355.339 230.421 355.48 230.426 355.656 230.432" stroke="#EE96F9" stroke-width="0.4" stroke-linecap="round"/>
<path d="M355.87 192.53C356.04 192.799 356.569 193.167 356.911 193.089C357.343 192.99 357.807 192.843 358.049 192.441C358.155 192.264 358.25 192.181 358.25 191.972C358.25 191.785 358.295 191.496 358.369 191.324C358.47 191.09 358.392 190.713 358.363 190.471C358.335 190.245 358.286 190.116 358.197 189.909C358.122 189.734 357.893 189.631 357.744 189.519C357.612 189.419 357.475 189.364 357.335 189.281C357.278 189.248 357.044 189.103 357.044 189.027C357.044 188.986 357.151 189.098 357.156 189.109C357.205 189.208 357.416 189.306 357.506 189.354C357.665 189.437 357.829 189.559 357.959 189.681C358.046 189.762 358.152 189.821 358.227 189.912C358.288 189.987 358.338 190.075 358.406 190.144C358.535 190.276 358.689 190.387 358.696 190.59C358.701 190.711 358.696 190.833 358.696 190.954C358.696 191.206 358.608 191.453 358.518 191.691C358.431 191.921 358.392 192.141 358.25 192.345C358.128 192.522 357.936 192.63 357.781 192.775C357.632 192.914 357.366 193.125 357.149 193.125" stroke="#EE96F9" stroke-width="0.4" stroke-linecap="round"/>
<path d="M334.659 182.832C334.423 182.832 334.187 182.832 333.951 182.832C333.843 182.832 333.733 182.817 333.632 182.862C333.539 182.903 333.469 183.05 333.409 183.136C333.16 183.496 333.142 183.937 333.142 184.364C333.142 184.79 333.277 185.175 333.446 185.562C333.561 185.826 333.735 185.988 333.96 186.164C334.017 186.209 334.104 186.308 334.183 186.313C334.208 186.314 334.052 186.313 334.021 186.313C333.674 186.313 333.372 186.275 333.118 186.022C332.77 185.673 332.666 185.092 332.666 184.617C332.666 184.369 332.736 184.126 332.798 183.888C332.866 183.624 332.973 183.496 333.193 183.333C333.394 183.184 333.596 182.99 333.846 182.934C333.99 182.903 334.14 182.892 334.287 182.892C334.356 182.892 334.508 182.882 334.346 182.863C334.151 182.84 333.94 182.862 333.743 182.862C333.487 182.862 333.442 183.016 333.261 183.166C332.809 183.538 332.844 184.103 332.844 184.64C332.844 184.795 332.755 184.34 332.755 184.186C332.755 183.993 332.806 183.859 332.887 183.685C332.928 183.598 332.848 183.896 332.846 183.944C332.835 184.196 332.883 184.464 332.917 184.713C332.961 185.038 333.032 185.273 333.241 185.526C333.333 185.638 333.423 185.75 333.513 185.862C333.527 185.878 333.588 185.916 333.588 185.866C333.588 185.808 333.489 185.726 333.461 185.686C333.338 185.515 333.236 185.329 333.151 185.136C333.11 185.042 333.069 184.744 333.052 184.845C333.035 184.947 333.042 185.097 333.066 185.195C333.127 185.45 333.208 185.748 333.32 185.985C333.356 186.062 333.393 186.101 333.475 186.104C333.509 186.106 333.666 186.167 333.675 186.114C333.708 185.934 333.595 185.647 333.561 185.483C333.483 185.095 333.357 184.671 333.383 184.27C333.402 183.97 333.509 183.686 333.528 183.387C333.546 183.113 333.99 182.813 334.199 182.683C334.34 182.596 334.062 182.594 334.022 182.594C333.917 182.594 333.781 182.567 333.694 182.639C333.527 182.775 333.356 182.885 333.201 183.04C332.977 183.264 332.785 183.591 332.785 183.92C332.785 184.038 332.731 184.145 332.725 184.26C332.717 184.406 332.662 184.546 332.666 184.703C332.674 185.103 332.838 185.432 333.023 185.777" stroke="#EE96F9" stroke-width="0.4" stroke-linecap="round"/>
<path d="M333.647 187.562C333.661 187.44 333.813 187.34 333.884 187.251C333.935 187.188 334.191 186.883 333.935 186.992C333.672 187.104 333.354 187.332 333.254 187.612C333.254 187.612 333.13 187.998 333.224 187.913C333.248 187.891 333.264 187.838 333.279 187.81C333.387 187.601 333.562 187.421 333.694 187.227C333.849 186.997 334.011 186.763 334.102 186.499C334.178 186.279 334.258 186.056 334.346 185.84C334.383 185.75 334.521 185.502 334.51 185.599C334.495 185.725 334.332 185.783 334.332 185.926" stroke="#EE96F9" stroke-width="0.4" stroke-linecap="round"/>
<rect x="257.729" y="150.585" width="82.44" height="55.38" rx="19" transform="rotate(15 257.729 150.585)" fill="url(#paint0_linear_6_63)" fill-opacity="0.36"/>
<path d="M357.932 198.384C360.215 190.421 368.522 185.816 376.485 188.1L415.924 199.409C423.888 201.692 428.492 209.999 426.209 217.962L420.29 238.602C418.007 246.566 409.7 251.17 401.737 248.887L362.298 237.578C354.334 235.294 349.73 226.988 352.013 219.024L357.932 198.384Z" fill="url(#paint1_linear_6_63)" fill-opacity="0.36"/>
<path d="M244.858 163.64C244.416 164.579 244.259 165.503 243.63 166.342C243.161 166.967 242.745 168.176 242.636 168.945C242.48 170.036 241.273 171.08 240.88 172.162C240.103 174.298 239.23 176.443 238.227 178.449" stroke="#EE96F9" stroke-width="3" stroke-linecap="round"/>
<path d="M251.209 163.954C251.662 164.035 252.071 164.221 252.501 164.364C252.907 164.499 253.33 164.564 253.685 164.822C253.805 164.909 253.949 164.928 254.074 165.006C254.208 165.089 254.319 165.165 254.465 165.222C254.694 165.312 254.885 165.335 255.138 165.335C255.525 165.335 255.601 165.085 255.762 164.778C255.888 164.538 255.892 164.023 255.8 163.763C255.75 163.62 255.695 163.499 255.609 163.375C255.585 163.342 255.267 163.019 255.259 163.076C255.242 163.198 255.703 163.381 255.739 163.572C255.781 163.797 255.866 164.017 255.914 164.243C255.946 164.39 255.965 164.524 255.962 164.674C255.96 164.802 255.891 164.857 255.834 164.963C255.754 165.113 255.638 165.301 255.52 165.424C255.363 165.587 255.309 165.74 255.038 165.752C254.849 165.76 254.678 165.816 254.485 165.816C253.955 165.816 253.495 165.49 253.047 165.238C252.854 165.13 252.648 165.078 252.445 164.996C252.256 164.918 252.089 164.82 251.889 164.765C251.349 164.617 250.752 164.307 250.181 164.307" stroke="#EE96F9" stroke-width="3" stroke-linecap="round"/>
<path d="M239.148 180.393C239.361 180.156 239.528 179.878 239.698 179.611C239.789 179.468 239.915 179.316 239.973 179.157C240.145 178.686 240.204 178.149 240.366 177.663C240.616 176.913 240.946 176.187 241.275 175.468C241.689 174.563 242.033 173.635 242.332 172.688" stroke="#EE96F9" stroke-width="3" stroke-linecap="round"/>
<path d="M244.887 162.31C244.688 162.72 244.492 163.119 244.26 163.509C244.123 163.74 244.062 164.023 243.926 164.245C243.673 164.659 243.65 165.135 243.489 165.588C243.374 165.912 243.301 166.219 243.227 166.556C243.138 166.963 242.956 167.349 242.804 167.735C242.617 168.207 242.388 168.673 242.253 169.163C242.133 169.6 242.014 170.042 241.843 170.465C241.608 171.046 241.367 171.668 241.209 172.275C241.144 172.528 241.016 172.778 240.886 173.003C240.675 173.367 240.638 173.82 240.524 174.221" stroke="#EE96F9" stroke-width="3" stroke-linecap="round"/>
<path d="M357.149 329.104C356.882 329.313 356.533 329.336 356.237 329.483C355.87 329.664 355.557 329.948 355.18 330.112C355.077 330.156 354.921 330.24 354.837 330.301C354.788 330.337 354.792 330.414 354.749 330.438C354.622 330.511 354.513 330.625 354.419 330.735C354.313 330.86 354.131 330.867 354.007 330.982C353.977 331.011 353.38 331.471 353.469 331.471C353.557 331.471 353.624 331.258 353.689 331.207C354.025 330.943 354.385 330.721 354.754 330.504C354.82 330.466 355.2 330.339 355.098 330.339C354.97 330.339 354.865 330.47 354.765 330.537C354.389 330.792 354.01 331.118 353.612 331.328C353.324 331.48 352.962 331.609 352.7 331.784C352.427 331.966 351.713 332.644 351.986 332.462C352.121 332.372 352.265 332.282 352.357 332.144C352.576 331.815 352.953 331.724 353.266 331.523C353.7 331.245 354.035 330.751 354.422 330.408C354.702 330.16 355.04 330.017 355.358 329.834C355.592 329.7 355.824 329.531 356.07 329.422C356.151 329.386 357.05 328.952 357.05 329.227C357.05 329.471 356.915 329.628 356.778 329.826C356.494 330.237 356.42 330.741 356.259 331.207C356.019 331.904 355.779 332.609 355.567 333.316C355.502 333.533 355.438 333.583 355.493 333.33C355.605 332.816 355.957 332.344 356.144 331.85C356.236 331.606 356.614 331.138 356.553 330.864C356.539 330.803 356.481 330.884 356.47 330.897C356.27 331.132 356.01 331.29 355.759 331.465C355.566 331.601 355.371 331.741 355.21 331.916C355.037 332.103 354.894 332.355 354.661 332.476C354.503 332.557 354.272 332.389 354.145 332.295C354.024 332.205 353.266 331.812 353.173 331.973C353.028 332.221 354.101 333.035 354.246 333.173C354.45 333.367 354.683 333.525 354.776 333.799C354.875 334.09 354.925 334.402 354.925 334.708C354.925 335.072 354.787 334.456 354.754 334.365C354.602 333.939 354.437 333.519 354.276 333.096C354.179 332.839 354.123 332.514 353.98 332.275C353.916 332.169 353.745 332.046 353.617 332.023C353.444 331.991 353.613 332.334 353.628 332.388C353.83 333.105 353.95 333.883 353.98 334.626C354.023 335.706 354.154 336.671 354.535 337.699C354.688 338.113 354.819 338.571 355.023 338.964C355.065 339.045 355.154 339.458 355.111 339.176C355.084 339 355.025 338.838 354.968 338.671C354.655 337.734 354.451 336.77 354.252 335.804C354.13 335.213 353.849 334.681 353.667 334.107C353.524 333.657 353.347 333.222 353.219 332.767C353.203 332.707 353.046 332.42 353.046 332.465C353.046 332.589 353.088 332.677 353.145 332.786C353.35 333.175 353.425 333.585 353.502 334.014C353.736 335.32 353.822 336.626 353.996 337.94C354.148 339.087 354.305 340.229 354.436 341.378C354.53 342.203 354.619 343.028 354.691 343.855C354.717 344.153 354.74 344.394 354.826 344.673" stroke="#EE96F9" stroke-linecap="round"/>
<path d="M143.273 421.504C148.688 421.843 153.917 423.933 159.251 424.36C162.942 424.655 166.748 424.556 170.416 425.097C179.83 426.486 188.878 427.857 198.424 427.857C204.329 427.857 209.872 430.277 215.749 430.712C221.007 431.101 226.577 432.493 231.694 433.888C234.471 434.646 237 435 240.036 435.364C241.5 435.5 243 436 244.527 436.519C246 437 248.003 438.057 249.5 438.5C250.683 438.851 252 439.5 253.863 439.984C256 441 257.398 442.597 259 445C259.958 446.437 260.829 447.504 261.627 448.967C262.377 450.341 263 451.5 263.841 452.689C265.5 455.5 266.878 458.586 268.878 461.03C269.993 462.392 272.253 467.126 273.787 467.126" stroke="#EE96F9" stroke-width="1.5" stroke-linecap="round"/>
<path d="M306.127 463.084C307.814 457.008 310.074 450.105 313.826 444.989C315.444 442.784 321.009 441.937 323.58 440.497C331.267 436.192 340.481 435.354 348.572 432.188C353.133 430.403 358.546 430.579 363.298 429.461C365.988 428.828 368.998 429.049 371.383 427.857" stroke="#EE96F9" stroke-linecap="round"/>
<path d="M350.946 333.518C351.119 333.518 351.319 333.435 351.466 333.348C351.569 333.287 351.683 333.255 351.784 333.191C351.923 333.102 352.088 333.034 352.238 332.967C352.334 332.923 352.446 332.907 352.545 332.865C352.753 332.776 352.951 332.741 353.127 332.583" stroke="#EE96F9" stroke-linecap="round"/>
<path d="M351.771 332.708C351.736 332.748 351.721 332.806 351.678 332.839C351.638 332.871 351.641 332.922 351.612 332.954C351.578 332.991 351.529 333.113 351.475 333.113" stroke="#EE96F9" stroke-linecap="round"/>
<path d="M236.103 284.035C236.159 284.184 236.306 284.288 236.368 284.44C236.401 284.522 236.456 284.594 236.497 284.672C236.53 284.734 236.553 284.803 236.589 284.864C236.629 284.931 236.674 284.995 236.716 285.06C236.734 285.089 236.764 285.165 236.795 285.184C236.891 285.244 236.993 285.297 237.089 285.357C237.296 285.487 237.484 285.644 237.657 285.814C237.76 285.916 237.879 286.012 237.974 286.119C238.06 286.215 238.124 286.331 238.209 286.428C238.259 286.486 238.32 286.523 238.37 286.582C238.422 286.646 238.444 286.73 238.493 286.798C238.507 286.816 238.546 286.897 238.539 286.89C238.449 286.8 238.39 286.676 238.292 286.593C238.147 286.472 237.955 286.407 237.809 286.285C237.553 286.073 237.305 285.857 237.034 285.662C236.898 285.564 236.829 285.394 236.74 285.257C236.674 285.157 236.608 285.055 236.523 284.97" stroke="#EE96F9" stroke-linecap="round"/>
<path d="M235.292 281.043C235.308 281.166 235.369 281.278 235.417 281.39C235.471 281.514 235.509 281.656 235.535 281.788C235.579 282.014 235.604 282.24 235.658 282.465C235.683 282.57 235.754 282.657 235.795 282.756C235.828 282.835 235.851 282.919 235.878 283C235.895 283.052 235.96 283.211 235.871 283.102C235.75 282.955 235.605 282.834 235.514 282.664C235.48 282.601 235.439 282.538 235.401 282.476C235.352 282.397 235.296 282.324 235.247 282.245C235.207 282.18 235.205 282.121 235.183 282.05C235.171 282.011 235.136 281.983 235.122 281.946C235.103 281.897 235.107 281.826 235.073 281.784C235.021 281.719 235.02 281.6 235.004 281.519C234.956 281.278 235.006 280.95 235.09 280.732" stroke="#EE96F9" stroke-linecap="round"/>
<path d="M235.91 278.3C235.926 278.559 236.001 278.816 236.052 279.07C236.076 279.192 236.113 279.313 236.163 279.427C236.213 279.54 236.231 279.689 236.249 279.81C236.279 280.014 236.267 280.219 236.299 280.422C236.323 280.575 236.378 280.745 236.378 280.9C236.378 280.923 236.384 280.979 236.369 280.927C236.354 280.875 236.355 280.803 236.354 280.75C236.352 280.683 236.32 280.618 236.317 280.554C236.316 280.544 236.316 280.485 236.317 280.508C236.319 280.555 236.359 280.611 236.373 280.657C236.422 280.825 236.49 281.002 236.502 281.177C236.505 281.226 236.518 281.178 236.511 281.152C236.489 281.069 236.455 280.989 236.433 280.905C236.419 280.852 236.412 280.799 236.398 280.746C236.37 280.647 236.355 280.538 236.336 280.436C236.318 280.343 236.299 280.243 236.261 280.155C236.247 280.121 236.228 280.109 236.25 280.147C236.27 280.181 236.307 280.207 236.329 280.241C236.373 280.306 236.395 280.38 236.415 280.456C236.439 280.545 236.475 280.62 236.477 280.713C236.478 280.773 236.492 280.954 236.489 280.894C236.484 280.792 236.434 280.705 236.418 280.608C236.397 280.479 236.385 280.348 236.357 280.222C236.348 280.182 236.343 280.038 236.317 280.025" stroke="#EE96F9" stroke-linecap="round"/>
<path d="M236.338 281.045C236.445 281.38 236.526 281.728 236.591 282.073C236.638 282.319 236.749 282.515 236.814 282.753C236.942 283.22 237.008 283.72 237.239 284.156C237.368 284.401 237.491 284.645 237.579 284.908C237.643 285.1 237.709 285.287 237.815 285.461C237.916 285.627 238.082 285.782 238.104 285.992C238.127 286.218 238.208 286.418 238.31 286.621" stroke="#EE96F9" stroke-linecap="round"/>
<path d="M235.956 213.674C235.355 210.601 235.337 207.486 235.156 204.367C235.096 203.317 235.068 202.275 235.068 201.218C235.068 200.393 235.303 199.638 235.329 198.825C235.364 197.758 235.4 196.743 235.556 195.686C235.667 194.935 235.792 194.193 235.951 193.451C236.426 191.237 236.72 188.97 237.407 186.808C237.756 185.709 238.137 184.594 238.571 183.527C238.648 183.338 238.773 183.166 238.803 182.964C238.991 181.713 239.335 180.511 239.687 179.297" stroke="#EE96F9" stroke-width="0.5" stroke-linecap="round"/>
<path d="M235.518 210.947C235.679 211.748 236.096 212.499 236.273 213.295C236.282 213.337 236.369 213.537 236.369 213.454C236.369 213.279 236.321 213.11 236.308 212.934C236.301 212.836 236.309 212.717 236.268 212.624C236.245 212.573 236.201 212.541 236.187 212.484C236.041 211.901 236.13 211.231 235.865 210.683C235.773 210.493 235.668 210.716 235.641 210.438C235.58 209.815 235.551 209.163 235.298 208.584C235.276 208.533 235.203 208.282 235.203 208.308C235.203 208.681 235.212 209.053 235.172 209.424C235.096 210.132 235.14 210.86 235.14 211.571C235.14 211.936 235.109 212.301 235.109 212.668C235.109 213.079 235.101 213.491 235.109 213.902C235.109 213.925 235.119 214.063 235.156 214.063C235.188 214.063 235.172 213.848 235.172 213.832C235.172 213.135 235.077 212.444 235.077 211.749C235.077 211.741 235.076 211.564 235.097 211.592C235.14 211.65 235.16 211.753 235.179 211.819C235.281 212.18 235.355 212.55 235.42 212.919C235.448 213.073 235.474 213.229 235.485 213.386C235.486 213.398 235.487 213.362 235.487 213.349C235.482 212.749 235.488 212.136 235.408 211.541C235.395 211.445 235.355 211.187 235.305 211.27C235.269 211.33 235.299 211.41 235.301 211.48C235.32 212.073 235.356 212.666 235.405 213.258C235.409 213.307 235.501 214.246 235.431 213.643C235.324 212.72 235.203 211.799 235.109 210.874C235.097 210.758 235.046 210.412 235.046 210.529C235.046 210.764 235.127 211 235.165 211.231C235.188 211.372 235.203 211.515 235.203 211.658C235.203 212.065 235.144 210.847 235.095 210.443C235.006 209.703 235.046 208.993 235.046 208.252C235.046 207.682 235.077 207.121 235.077 206.552C235.077 206.367 235.014 206.187 235.014 206C235.014 205.861 235.014 205.723 235.014 205.584C235.014 205.296 234.951 205.011 234.951 204.721C234.951 204.54 234.951 204.36 234.951 204.18C234.951 204.062 234.921 203.899 234.958 203.788C235.064 203.471 235.077 203.153 235.077 202.818" stroke="#EE96F9" stroke-width="0.5" stroke-linecap="round"/>
<path d="M249.197 157.025C249.885 157.025 250.556 157.016 251.24 156.945C251.499 156.918 251.894 156.778 251.728 157.037C251.434 157.493 251.049 157.81 250.746 158.288C250.424 158.796 249.82 159.414 249.346 159.82C249.155 159.984 249.002 160.221 248.784 160.331" stroke="#EE96F9" stroke-width="0.5" stroke-linecap="round"/>
<path d="M415.86 244.5C415.813 243.941 416.119 243.147 416.081 242.584C416.055 242.197 416.051 241.726 415.86 241.391C415.488 240.736 416.436 238.635 416.081 238C415.762 237.429 416.145 236.071 415.86 235.5C415.696 235.173 415.982 229.848 415.86 229.5C415.715 229.085 411.36 226 411.36 225" stroke="#EE96F9" stroke-width="0.5" stroke-linecap="round"/>
<path d="M426.777 223.21C427.866 223.21 429.077 223.38 430.118 223.01C430.406 222.908 430.751 223.063 431.029 222.937C431.248 222.837 431.477 222.756 431.697 222.646C432.061 222.464 432.45 222.386 432.791 222.177C432.947 222.082 432.985 221.976 433.181 221.921C433.302 221.888 433.487 221.871 433.572 221.765C433.679 221.632 433.867 221.443 434.001 221.336C434.241 221.144 434.197 219.961 434.197 219.695C434.197 219.121 433.757 218.619 433.494 218.133C433.317 217.807 433.103 217.845 433.103 218.177C433.103 218.555 433.374 218.98 433.572 219.288C433.804 219.649 433.806 219.932 433.806 220.351C433.806 220.591 433.728 221.067 433.728 221.067C433.728 221.067 433.806 220.373 433.806 220.025C433.806 219.457 433.646 220.576 433.606 220.698C433.524 220.951 433.371 221.213 433.259 221.457C433.203 221.579 433.175 221.786 433.181 221.535C433.19 221.19 433.309 220.863 433.333 220.52C433.345 220.341 433.433 219.833 433.333 219.982C433.064 220.386 433.127 220.955 433.103 221.414C433.093 221.607 433.277 220.529 433.064 220.837C432.915 221.052 432.827 221.318 432.773 221.57C432.746 221.701 432.518 222.145 432.591 221.743C432.607 221.659 432.826 220.693 432.483 221.036C432.286 221.233 432.276 221.662 432.205 221.921C431.92 222.964 432.235 221.662 432.235 221.31C432.235 221.172 431.964 221.618 431.949 221.648C431.825 221.905 431.779 222.179 431.637 222.429C431.495 222.678 431.801 221.879 431.845 221.596C431.896 221.263 431.395 222.103 431.35 222.221C431.079 222.936 431.547 222.019 431.853 221.787C432.152 221.561 432.602 221.258 432.995 221.258C433.115 221.258 433.324 221.304 433.398 221.179C433.441 221.107 433.166 221.473 433.112 221.527C432.376 222.249 431.256 223.074 430.226 223.279C429.897 223.345 430.374 223.088 430.43 223.054C430.6 222.952 430.761 222.81 430.873 222.646C430.994 222.469 431.072 222.25 431.072 222.039" stroke="#EE96F9" stroke-width="0.5" stroke-linecap="round"/>
<path d="M433.728 220.945C433.728 221.03 433.654 221.735 433.494 221.414" stroke="#EE96F9" stroke-width="0.5" stroke-linecap="round"/>
<path d="M415.583 234.992C415.583 235.576 415.583 236.16 415.583 236.744C415.583 236.923 415.583 237.611 415.583 237.083C415.583 236.755 415.583 236.427 415.583 236.099C415.583 236.021 415.518 235.691 415.486 235.946C415.438 236.327 415.182 237.452 415.236 237.072C415.31 236.552 415.419 236.017 415.433 235.493C415.441 235.224 415.533 234.986 415.533 234.703C415.533 234.346 415.44 233.821 415.558 233.491C415.673 233.171 415.613 232.584 415.633 232.24C415.661 231.771 415.684 231.292 415.684 230.811C415.684 230.449 415.684 230.088 415.684 229.726C415.684 229.651 415.633 229.154 415.633 229.34C415.633 229.564 415.633 229.789 415.633 230.013C415.633 230.181 415.741 230.359 415.772 230.527C415.809 230.722 415.827 230.981 415.909 231.161C415.987 231.333 415.951 231.52 416.023 231.689C416.095 231.861 416.13 232.145 416.134 232.329C416.138 232.523 416.184 232.704 416.184 232.89C416.184 233.168 416.122 233.517 416.256 233.766C416.484 234.189 416.264 234.795 416.395 235.254C416.562 235.838 416.634 236.403 416.634 237.011C416.634 237.153 416.639 236.725 416.632 236.582C416.597 235.959 416.271 235.358 416.084 234.77C416.029 234.597 416.014 234.422 415.973 234.247C415.964 234.211 415.962 234.777 415.967 234.831C416.025 235.456 416.095 236.103 416.262 236.71C416.294 236.829 416.334 237.072 416.334 237.072C416.334 237.072 416.334 236.803 416.334 236.669C416.334 236.037 416.37 235.477 416.162 234.884C416.037 234.527 415.948 234.008 415.934 233.63C415.925 233.397 415.952 233.907 415.964 233.972C416.049 234.413 416.134 234.843 416.134 235.292" stroke="#EE96F9" stroke-width="0.5" stroke-linecap="round"/>
<path d="M248.811 157.186C250.276 155.72 250.982 153.69 252.637 152.366C253.409 151.749 254.198 151.141 254.959 150.497C255.586 149.966 256.081 148.98 256.697 148.569C258.13 147.614 258.761 145.846 260.085 144.743C261.127 143.874 261.727 142.631 262.539 141.559C264.19 139.377 266.644 137.887 268.395 135.746C270.358 133.348 273.612 131.526 274.471 128.473C275.147 126.071 276.83 124.047 278.049 121.901C278.645 120.852 278.94 119.597 279.568 118.6C280.14 117.692 280.833 115.124 282.197 115.124C282.589 115.124 283.427 117 283.482 117.344C283.605 118.109 283.511 118.964 283.511 119.739C283.511 120.116 283.294 122.716 284.154 122.47C284.364 122.41 284.644 121.732 284.797 121.579C285.877 120.499 287.262 119.777 288.389 118.746C290.24 117.054 291.739 115.046 293.501 113.284C295.234 111.551 297.733 109.708 299.927 108.61C300.397 108.376 301.583 107.457 301.665 107.909C301.837 108.854 302.439 109.354 302.439 110.363C302.439 111.453 302.744 112.541 302.965 113.605C303.627 116.794 303.323 120.391 303.213 123.639C303.137 125.871 302.717 128.624 301.913 130.722C301.767 131.104 301.797 131.832 301.388 131.832C301.37 131.832 301.386 131.045 301.446 130.956C301.981 130.153 302.251 128.802 302.702 127.874C303.355 126.531 303.921 125.169 304.338 123.741C304.906 121.792 306.357 120.192 307.434 118.527C308.887 116.282 310.628 114.211 312.137 111.984C315.455 107.085 320.636 103.603 324.901 99.4825C328.899 95.6202 331.404 89.6243 337.768 89.6243C338.871 89.6243 337.876 90.7234 337.344 91.0847C336.584 91.6018 336.069 92.2317 335.431 92.9249C333.517 95.0056 331.92 97.3742 329.984 99.4094C327.968 101.528 326.056 104.108 324.726 106.712C322.863 110.357 320.639 113.796 318.607 117.344C317.092 119.989 314.966 122.403 313.685 125.172C312.665 127.377 311.871 129.177 311.509 131.569C311.153 133.917 310.932 136.295 310.574 138.623C310.528 138.919 310.284 140.231 310.326 139.193C310.412 137.037 311.678 134.909 313.086 133.395C313.957 132.458 314.722 131.478 315.525 130.488C315.68 130.297 316.352 129.145 316.372 129.846C316.415 131.354 316.339 132.865 316.372 134.373C316.387 135.074 318.218 141.846 318.417 141.822C318.566 141.803 318.475 139.577 318.475 139.412C318.475 136.059 318.226 132.829 319.147 129.583C319.725 127.547 320.111 124.934 321.104 123.069C322.439 120.56 323.933 118.292 325.997 116.292C329.156 113.23 332.172 109.698 335.563 106.916C336.548 106.108 339.43 103.632 338.338 104.287C337.722 104.657 337.088 106.254 336.731 106.916C336.186 107.928 335.825 109.024 335.358 110.071C334.669 111.615 333.557 112.929 332.846 114.482C330.43 119.758 329.811 125.561 329.502 131.277C329.421 132.771 329.253 134.213 329.253 135.717C329.253 136.34 329.408 134.473 329.589 133.877C330.61 130.508 331.856 127.203 332.992 123.872C333.437 122.569 333.882 121.389 334.54 120.177C335.417 118.565 335.965 116.658 336.935 115.124C338.672 112.38 339.995 109.042 342.281 106.683C346.723 102.097 351.605 98.146 356.988 94.6629C359.963 92.7377 358.79 94.6729 357.645 96.5469C357.505 96.7763 355.403 99.351 356.462 99.351C357.009 99.351 357.584 99.1198 358.171 99.0881C359.746 99.003 361.454 97.9094 362.844 97.2917C363.194 97.1364 364.516 96.4983 364.422 96.7806C364.023 97.9761 362.649 99.3771 361.851 100.403C361.176 101.27 360.885 101.581 361.851 100.665C362.547 100.006 363.655 99.9668 364.597 99.8914C365.61 99.8103 366.563 99.8521 367.489 100.315C370.296 101.719 373.479 103.271 376.047 105.076C376.392 105.319 377.792 105.66 377.23 105.66C376.567 105.66 376.529 106.252 376.047 106.507C374.785 107.175 373.519 108.29 372.483 109.253C369.502 112.025 366.618 114.914 362.873 116.599C357.988 118.798 353.128 120.913 348.356 123.361C343.416 125.896 338.154 128.96 332.773 130.474C331.192 130.918 333.227 130.551 333.722 130.43C340.919 128.675 347.971 126.63 355.075 124.53C359.607 123.19 363.913 121.301 368.409 119.856C370.344 119.234 372.133 118.565 374.002 117.811C375.086 117.375 376.317 117.592 377.245 116.833C377.666 116.488 378.721 115.717 378.676 115.796C377.265 118.265 375.79 120.427 373.827 122.573C371.282 125.355 368.93 128.309 366.057 130.78C363.305 133.149 360.434 135.503 357.44 137.557C355.039 139.205 352.425 140.48 349.963 142.026C349.438 142.356 347.751 142.99 348.371 142.99C348.718 142.99 349.052 143.032 349.364 142.858C349.964 142.525 350.307 141.703 350.868 141.471C352.784 140.678 354.874 140.284 356.856 139.689C360.342 138.644 363.943 137.052 367.226 135.498C374.625 131.993 381.632 128.211 388.315 123.478C391.398 121.294 394.278 119.033 397.078 116.497C397.742 115.895 399.444 113.5 399.444 115.241C399.444 116.182 399.031 117.153 398.713 118.016C397.796 120.511 397.11 123.278 395.676 125.537C392.524 130.501 387.653 134.739 382.94 138.2C381.854 138.997 380.64 140.718 379.333 141.121C378.216 141.464 377.362 141.674 376.368 142.464C375.252 143.352 377.658 143.035 378.15 142.844C380.586 141.897 383.224 141.569 385.671 140.609C390.136 138.859 394.791 137.202 398.553 134.169C399.512 133.395 401.371 132.779 402.014 131.686C402.431 130.977 402.335 132.451 402.335 132.679C402.335 137.374 400.966 140.677 398.012 144.421C393.952 149.569 388.165 153.607 382.926 157.434C382.853 157.487 377.393 160.611 379.859 160.063C380.333 159.958 381.221 159.202 381.743 158.968C386.102 157.009 390.019 154.45 394.201 152.176C398.413 149.885 402.249 146.94 406.016 143.983C406.879 143.305 408.122 142.629 408.762 141.705C409.078 141.248 409.369 140.766 409.652 140.288C409.767 140.095 409.78 139.555 409.959 139.689C410.321 139.961 410.602 141.761 410.733 142.187C411.105 143.395 411.463 144.659 411.653 145.911C412.097 148.827 412.26 151.97 412.004 154.907C411.956 155.458 410.734 160.364 411.42 160.559C411.579 160.605 414.427 158.326 414.676 159.449C414.951 160.684 414.691 162.28 414.691 163.524C414.691 167.221 414.583 170.933 414.822 174.624C414.981 177.058 414.954 179.488 414.954 181.926C414.954 183.122 415.265 184.581 414.165 185.314" stroke="#EE96F9" stroke-linecap="round"/>
<path d="M412.851 187.155C413.265 187.155 417.291 186.976 417.291 187.301C417.291 187.864 416.346 188.536 416.122 189.053C415.86 189.66 415.439 190.344 415.275 190.981C414.697 193.23 414.428 195.604 414.428 197.933" stroke="#EE96F9" stroke-linecap="round"/>
<path d="M403.905 80.7867C405.118 83.8175 408.636 86.0165 410.68 88.4912C412.519 90.7176 414.663 92.6542 416.436 94.9337C417.267 96.0027 414.717 95.7959 414.355 96.0185C413.56 96.5075 412.534 96.2564 411.654 96.5498C410.447 96.9523 409.307 97.5479 408.09 97.9225C403.152 99.4418 399.013 102.829 394.828 105.716C392.739 107.156 387.63 110.483 386.769 113.066" stroke="#EE96F9" stroke-linecap="round"/>
<path d="M427.816 113.066C428.605 120.958 429.407 127.908 428.037 135.736C427.534 138.608 426.247 141.89 425.026 144.548C424.147 146.462 423.047 148.391 422.458 150.326C422.021 151.763 422.479 153.229 421.838 154.511" stroke="#EE96F9" stroke-linecap="round"/>
<path d="M249.783 153.069C249.783 145.395 249.818 137.722 250.783 130.098C251.268 126.267 252.334 122.507 252.686 118.671C253.099 114.151 254.331 109.96 255.33 105.557C255.932 102.901 256.265 94.7302 256.362 97.4519C256.462 100.253 257.136 102.758 257.609 105.514C258.21 109.016 259.071 112.635 259.071 116.199C259.071 116.26 259.03 117.5 259.264 117.188C259.647 116.677 259.876 115.705 260.027 115.178C261.144 111.281 261.799 107.276 262.607 103.31C263.842 97.2521 267.361 92.1906 270.787 87.1326C271.455 86.147 271.796 84.9796 272.292 83.9078C272.495 83.4696 272.808 83.1271 272.808 82.6393" stroke="#EE96F9" stroke-linecap="round"/>
<path d="M355 180.768C355.538 180.719 356.036 180.35 356.454 180.04C357.49 179.274 358.48 178.537 359.585 177.866C361.048 176.978 362.615 176.119 364.183 175.435C365.048 175.059 365.887 174.666 366.688 174.156C367.179 173.844 367.863 173.035 368.479 173.012C370.381 172.938 372.11 173.218 373.932 173.739C375.188 174.097 376.499 174.458 377.79 174.648C378.75 174.789 379.714 174.905 380.679 175.011C381.718 175.125 382.61 175.449 383.601 175.651C384.735 175.882 385.791 176.246 386.94 176.405C388.13 176.569 389.326 176.716 390.508 176.916C391.409 177.069 392.27 177.277 393.181 177.435C394.813 177.717 396.489 178.013 398.103 178.398C399.012 178.614 399.863 178.917 400.715 179.286C401.239 179.513 401.546 179.856 402.021 180.162C402.351 180.374 402.648 180.617 402.977 180.828C403.232 180.992 403.211 181.324 403.475 181.495C403.719 181.652 404.011 181.981 404.176 182.222C404.784 183.111 405.793 183.788 406.519 184.578C407.925 186.108 409.318 187.826 410.424 189.594C410.613 189.898 410.695 190.266 410.989 190.463" stroke="#EE96F9" stroke-width="0.5" stroke-linecap="round"/>
<path d="M235.976 281C235.976 285.612 236.03 290.229 235.976 294.841C235.954 296.717 235.619 298.482 235.342 300.325C235.104 301.907 235.094 303.559 234.707 305.114C234.334 306.614 234.002 308.069 233.815 309.616C233.542 311.87 232.729 314.068 232.605 316.345C232.437 319.427 231.102 322.125 230.092 325.001C229.339 327.146 229.389 330.046 228.131 331.97C227.645 332.713 226.979 333.282 226.593 334.101C226.32 334.679 226.14 335.294 225.818 335.849C224.916 337.4 224.302 339.061 223.41 340.626C222.151 342.837 220.387 344.97 218.431 346.565C217.392 347.412 216.464 348.202 215.307 348.936C213.985 349.775 212.514 350.576 211.256 351.474C208.611 353.362 206.296 355.695 203 356" stroke="#EE96F9" stroke-width="3" stroke-linecap="round"/>
<path d="M235.734 213.445C235.613 217.739 234.578 221.999 234.446 226.278C234.395 227.928 234.044 229.47 234.017 231.144C233.987 232.978 233.623 234.808 233.421 236.63C233.126 239.283 232.943 241.992 232.943 244.669C232.943 246.978 232.122 249.166 232.085 251.491C232.009 256.162 231.794 260.96 232.943 265.493C234.213 270.502 235.52 275.887 235.52 281.069" stroke="#EE96F9" stroke-width="2" stroke-linecap="round"/>
<path d="M239 180.544C238.332 179.798 237.565 179.239 236.942 178.402C236.361 177.624 236.099 176.557 235.575 175.726C235.01 174.831 234.452 174.232 233.5 174C232.781 173.825 231.938 173.3 231.21 173.263C230.325 173.22 229.363 172.82 228.46 173.097C227.473 173.399 226.556 174.34 225.736 175.095C224.353 176.37 223.713 177.914 222.87 179.77C221.932 181.837 220.889 184.194 220.306 186.492C219.82 188.406 219.315 190.149 218.567 191.904C217.622 194.121 217.412 197.295 217.05 199.791C216.706 202.16 216 204.6 216 207C215.491 208.69 215.753 210.304 216 212C216.171 213.172 216.54 214.266 216.801 215.403C217.078 216.608 217.621 218.574 218.152 219.629C218.152 220.127 218.799 221.106 218.896 221.624C219.206 223.286 219.499 224.716 220.244 226.26C220.936 227.694 221.767 229.132 222.551 230.483C223.372 231.898 224.597 233.52 225.816 234.337C227.475 235.449 229.021 236.777 230.731 237.715C231.583 238.183 232.451 239 233.41 239" stroke="#EE96F9" stroke-width="2" stroke-linecap="round"/>
<path d="M355 331C355 336.285 355.007 341.524 355.278 346.771C355.414 349.413 355.567 352.001 355.743 354.612C355.782 355.197 355.778 356.764 356 357" stroke="#EE96F9" stroke-width="2" stroke-linecap="round"/>
<path d="M356.334 356.424C361.487 359.625 367.163 362.124 372.547 364.921C376.146 366.791 380.287 368.42 383.634 370.737C385.148 371.785 386.978 372.49 388.391 373.667C389.605 374.68 390.707 375.54 392.057 376.362C396.791 379.243 402.206 381.149 407.371 383.135C410.427 384.311 413.383 385.725 416.486 386.773C418.498 387.452 420.284 388.534 422.273 389.232C425.557 390.383 428.895 391.233 432.227 392.265C436.512 393.593 440.279 395.606 444.286 397.61C446.772 398.853 449.08 399.405 451.693 400.157C455.542 401.266 459.68 402.131 463.414 403.544C465.471 404.323 467.559 405.202 469.584 406.062C472.408 407.262 474.554 409.507 477.255 410.759C480.513 412.269 483.791 413.748 487.003 415.324C488.711 416.162 490.272 417.267 491.936 418.181C494.336 419.499 496 420.5 498.491 422.486C500.5 424 501.914 424.917 504.16 426.447C504.919 426.841 505.383 427.383 506 428C506.542 428.542 507.224 429.497 507.589 430.167C508.795 432.384 510.231 434.481 511.388 436.734C512.753 439.393 514.717 441.534 516.158 444.097C517.496 446.475 518.439 448.994 519.457 451.518C520.422 453.912 521.42 456.133 521.666 458.733C522.01 462.383 522.022 466.05 521.209 469.659C520.978 470.686 521.346 470.5 520.5 470.5" stroke="#EE96F9" stroke-width="3" stroke-linecap="round"/>
<path d="M402 257C401.849 258.396 400.4 259.677 399.933 260.978C399.279 262.799 398.558 264.233 397.607 265.915C395.525 269.595 394.423 273.632 392.496 277.364C389.571 283.027 387.829 289.364 385.733 295.385C384.906 297.763 383.385 299.72 382.302 301.942C381.296 304.007 380.218 306.104 378.541 307.66C376.979 309.107 375.296 310.772 373.946 312.434C371.358 315.621 367.303 317.28 364.787 320.45C363.163 322.494 361.192 324.326 359.489 326.344C358.256 327.804 357.15 329.426 356 331" stroke="#EE96F9" stroke-width="2" stroke-linecap="round"/>
<path d="M416 237C416 245.589 412.726 253.561 408.654 260.692C407.943 261.936 406.981 262.973 406.301 264.275C405.354 266.089 404.079 267.99 402.621 269.373C400.977 270.932 398.97 271.989 397.443 273.692C396.392 274.863 395.466 275.684 394 276" stroke="#EE96F9" stroke-width="2" stroke-linecap="round"/>
<path d="M235.5 280C235.87 283.147 238.691 286.562 239.95 289.5C240.461 290.692 240.044 290.008 240.773 291.083C242.295 293.325 244.444 295.777 246.306 297.748C247.69 299.214 248.913 301.339 250.072 303.048C251.722 305.479 253.521 307.887 254.871 310.513C256.663 313.997 258.597 316.172 261.571 318.746C265.19 321.879 268.442 325.806 272.336 328.578C273.416 329.347 274.202 330.509 275.269 331.194C276.215 331.803 276.917 333.056 277.969 333.377C278.968 333.683 280.134 334.295 280.968 334.944C282.24 335.933 284.15 336.297 285.601 337.043C287.74 338.144 289.791 339.143 292 340.11C293.545 340.786 294.866 342.173 296.433 342.743C298.306 343.424 300.264 343.527 302.132 344.176C303.556 344.67 305.064 345.142 306.582 345.142C309.998 345.142 313.379 345.9 316.814 345.009C319.166 344.399 321.556 343.877 323.929 343.343C325.624 342.961 327.399 342.086 329.095 341.859C333.603 341.258 338.633 339.557 342.76 337.493C343.707 337.02 344.925 336.95 345.76 336.377C346.811 335.656 348.162 334.726 349.36 334.327C351.058 333.761 352.092 332.378 353.559 331.644" stroke="#EE96F9" stroke-linecap="round" stroke-linejoin="bevel"/>
<path d="M241.519 95.097C239.901 99.6489 238.469 104.074 236.042 108.266C233.888 111.987 232.982 116.072 231.611 120.114C229.231 127.129 230.545 133.36 231.859 140.479C233.536 149.572 235.718 159.016 235.822 168.303C235.844 170.282 236.324 172.616 236.95 174.496C237.254 175.407 237.494 176.794 238.299 177.33" stroke="#EE96F9" stroke-width="2" stroke-linecap="round"/>
<path d="M241.205 96C241.205 94.9484 241.205 93.8968 241.205 92.8452C241.205 92.1306 240.634 92.0527 240.242 91.5239C239.594 90.6513 240.354 87.9142 241.26 87.3715C245.021 85.1196 248.834 82.9621 252.515 80.5765C256.276 78.138 259.914 75.5295 263.742 73.1883C266.605 71.4368 269.638 70.1545 272.588 68.5774C275.045 67.2641 277.246 65.4637 279.701 64.1013C282.055 62.7951 284.596 61.6294 286.828 60.1376C287.674 59.5725 288.556 59.0651 289.36 58.4389C292.425 56.0501 294.423 52.7847 297.271 50.2148C299.383 48.3091 301.998 47.4573 304.632 46.5477C306.923 45.7563 309.288 45.2407 311.594 44.5119C314.455 43.6074 317.136 42.2494 320.096 41.6402C323.164 41.0089 326.103 40.2318 329.108 39.3482C333.232 38.136 337.743 38.1814 342 38" stroke="#EE96F9" stroke-width="2" stroke-linecap="round"/>
<path d="M447 129C446.853 125.864 446.519 122.701 446.166 119.581C445.93 117.49 445.588 115.439 445.548 113.329C445.51 111.374 444.913 109.706 444.606 107.8C444.403 106.537 444.507 105.142 444.055 103.937C443.541 102.569 442.766 101.301 442.105 100.005C441.393 98.6127 440.633 97.401 439.738 96.1285C439.484 95.7686 439.165 95.5937 438.823 95.3367C438.183 94.8552 437.93 93.9802 437.411 93.3846C435.814 91.5528 433.946 89.9945 432.354 88.1017C430.38 85.7546 428.36 83.4298 426.127 81.3308C423.265 78.64 420.223 76.2803 417.278 73.659C415.284 71.8847 413.397 70.1562 411.764 68.0348C409.895 65.6072 408.448 62.7197 406.801 60.1309C405.33 57.8194 404.323 55.2256 402.578 53.1006C401.04 51.2271 399.228 49.5774 397.454 47.9406C394.815 45.5054 391.037 44.2237 387.959 42.4529C385.126 40.823 382.446 38.7921 379.298 37.8389C375.061 36.556 370.714 36.0159 366.293 36.1325C361.879 36.2488 356.994 35.783 352.604 36.1325C351.277 36.2381 340 39.457 340 38.0846" stroke="#EE96F9" stroke-width="2" stroke-linecap="round"/>
<path d="M416 198C417.466 197.467 418.647 195.169 419.296 194.037C419.928 192.934 420.509 191.737 420.87 190.541C421.403 188.773 421.909 186.947 422.948 185.36C424.144 183.535 425.398 181.74 426.749 179.999C429.528 176.418 431.032 172.226 432.985 168.292C434.285 165.67 435.637 162.938 437.557 160.612C438.566 159.391 439.101 158.413 439.636 156.921C441.033 153.029 441.724 148.976 443.259 145.136C444.415 142.243 445.685 139.493 446.139 136.459C446.502 134.034 446.241 131.318 447 129" stroke="#EE96F9" stroke-width="2" stroke-linecap="round"/>
<path d="M238.391 179.657C238.622 178.27 238.623 179.052 239.5 178C241.096 176.085 243.45 170.255 244.5 168C245.209 166.478 245.808 166.235 246.409 164.715C246.671 164.053 246.808 162.724 247.555 162.475" stroke="#EE96F9" stroke-width="3" stroke-linecap="round"/>
<path d="M246.18 162.475C249.033 162.625 251.856 163.85 254.656 163.85" stroke="#EE96F9" stroke-width="5" stroke-linecap="round"/>
<path d="M333.579 186.685C333.5 187.631 333.044 188.748 332.726 189.636C332.544 190.142 332.366 190.664 332.211 191.179C331.803 192.537 330.854 193.421 330.12 194.604C328.891 196.586 328.266 198.584 327.419 200.729C326.649 202.681 325.11 204.275 324.022 206.056C323.69 206.599 323.314 207.081 322.979 207.613C322.501 208.372 322.205 209.15 321.571 209.826C321.227 210.194 320.634 210.34 320.238 210.652C319.518 211.219 319.13 212.074 318.471 212.696C318.049 213.095 317.468 213.535 317.131 214.002C316.498 214.881 316.038 215.817 315.101 216.493C313.525 217.629 311.761 218.425 310.16 219.512C308.915 220.357 307.058 221 305.5 221" stroke="#EE96F9" stroke-linecap="round"/>
<path d="M254.472 167C253.944 169.257 252.949 171.345 252.455 173.604C252.216 174.699 251.944 175.788 251.705 176.879C251.586 177.423 251.704 177.982 251.637 178.53C251.525 179.443 251.193 180.413 250.942 181.295C250.438 183.068 249.983 184.899 249.715 186.718C249.598 187.509 249.714 188.312 249.592 189.107C249.54 189.451 249.592 189.798 249.545 190.141C249.419 191.05 249.085 191.901 249.074 192.826C249.052 194.668 248.919 196.454 249.074 198.289C249.188 199.632 250.307 200.894 250.424 202.275C250.482 202.967 250.975 203.932 251.283 204.57C251.575 205.178 252.14 205.561 252.632 206.02C253.381 206.719 254.398 207.328 255.29 207.832C256.22 208.357 257.245 208.937 258.228 209.342C259.364 209.811 260.422 210.379 261.527 210.906C262.482 211.361 263.635 211.499 264.539 212C265.73 212.659 267.16 212.763 268.445 213.148C269.493 213.462 270.562 214.002 271.648 214.121C272.114 214.172 272.575 214.447 273.025 214.57C273.914 214.814 274.814 214.963 275.717 215.141C276.682 215.331 277.535 215.731 278.519 215.866C278.894 215.917 279.47 215.817 279.773 216.074C280.087 216.341 280.398 216.469 280.795 216.591C281.726 216.875 282.723 216.774 283.658 217.067C284.001 217.175 284.366 217.128 284.721 217.134C285.245 217.144 285.786 217.326 286.295 217.436C287.106 217.611 287.969 217.688 288.763 217.926C290.804 218.538 293.018 218.388 295.095 218.899C296.175 219.165 297.242 219.467 298.325 219.725C299.161 219.923 300.01 220.12 300.847 220.342C301.713 220.572 302.826 220.701 303.724 220.752C304.498 220.795 305.221 221 306 221" stroke="#EE96F9" stroke-linecap="round" stroke-linejoin="round"/>
<path d="M290.329 160.004C289.356 159.543 288.237 159.32 287.222 158.982C286.484 158.736 285.74 158.664 284.968 158.664C284 158.664 282.875 158.228 281.936 157.994C281.369 157.852 280.79 157.866 280.271 157.621C279.627 157.318 278.716 157.38 278.024 157.317C277.029 157.226 276.02 157.093 275.032 156.931C273.404 156.665 271.635 156.982 270.05 156.62C269.107 156.404 268.136 156.227 267.153 156.227C266.482 156.227 265.776 156.16 265.109 156.234C264.234 156.331 263.335 156.665 262.456 156.809C260.786 157.083 259.249 157.846 258.246 159.246C257.49 160.301 256.807 161.438 255.972 162.44" stroke="#EE96F9" stroke-linecap="round"/>
<path d="M290.816 160.126C292.673 160.126 294.543 160.857 296.413 160.857C296.9 160.857 297.346 161.11 297.828 161.195C298.474 161.309 299.078 161.484 299.709 161.642C301.278 162.034 302.833 162.483 304.386 162.935C305.771 163.337 307.152 163.978 308.603 164.139C309.558 164.245 310.487 164.577 311.432 164.782C312.611 165.039 313.942 165.194 314.965 165.852C315.924 166.468 317.014 167.038 318.106 167.341C319.117 167.622 320.223 168.065 321.057 168.708C321.866 169.331 322.734 169.937 323.616 170.454C324.018 170.691 324.418 171.033 324.868 171.151C325.665 171.361 326.487 171.796 327.25 172.14C329.57 173.183 331.041 175.268 331.927 177.548C332.523 179.08 334.055 180.116 334.404 181.785C334.573 182.592 334.431 183.546 334.431 184.37C334.431 185.261 334.299 186.092 333.822 186.807" stroke="#EE96F9" stroke-linecap="round"/>
<path d="M357.427 192.268C357.226 193.143 356.65 194.084 356.312 194.93C356.141 195.358 356.02 195.825 355.887 196.268C355.716 196.839 355.848 197.511 355.595 198.037C355.299 198.655 355.373 199.306 355.373 199.977C355.373 202.106 355.395 204.403 355.094 206.507C354.972 207.365 354.677 208.202 354.549 209.068C354.44 209.811 354.471 210.603 354.289 211.332C354.129 211.973 354.232 212.723 354.232 213.379C354.232 214.579 354.15 215.924 353.89 217.094C353.577 218.501 353.776 220.111 353.776 221.545C353.776 222.314 353.921 223.061 354.01 223.821C354.066 224.296 354.046 224.834 354.143 225.298C354.379 226.419 354.467 227.563 354.689 228.671" stroke="#EE96F9" stroke-linecap="round"/>
<path d="M355.259 229.584C355.89 231.026 356.629 232.437 357.199 233.895C357.54 234.767 357.955 235.267 358.569 235.968C359.328 236.836 360.344 237.071 361.193 237.743C361.954 238.346 362.66 238.886 363.501 239.373C364.896 240.178 366.458 240.515 367.837 241.313C368.619 241.764 369.586 241.94 370.437 242.2C371.161 242.422 371.673 242.778 372.307 243.164C373.487 243.882 374.972 243.983 376.257 244.482C377.194 244.847 378.138 245.095 379.11 245.357C380.07 245.617 381.018 245.936 381.963 246.245C382.992 246.581 384.079 246.706 385.088 247.101C385.938 247.433 386.773 247.686 387.675 247.9C388.911 248.192 390.242 247.96 391.46 248.299C394.209 249.065 397.214 249.593 400.056 249.789C401.18 249.866 402.216 250.125 403.353 250.125C404.517 250.125 405.687 250.239 406.84 250.239" stroke="#EE96F9" stroke-linecap="round"/>
<path d="M426 221C425.904 221.993 424.973 223.052 424.564 223.911C424.082 224.925 423.965 226.146 423.424 227.133C422.928 228.039 422.594 228.969 422.284 229.958C421.755 231.65 420.888 233.225 420.258 234.878C419.942 235.707 419.495 236.448 419.16 237.26C418.832 238.055 418.479 238.917 417.893 239.55C417.475 240.001 417.047 240.459 416.663 240.943C415.993 241.788 415.66 242.93 414.974 243.767C414.021 244.931 412.889 245.91 411.946 247.076C411.659 247.432 411.204 247.841 410.854 248.146C409.873 249.003 408.318 250 407 250" stroke="#EE96F9" stroke-width="0.6" stroke-linecap="round"/>
<path d="M357.542 189.643C358.369 188.855 359.308 188.219 360.122 187.405C360.654 186.872 361.075 186.598 361.764 186.34C362.328 186.129 363.219 186.105 363.824 186.105C364.395 186.105 364.965 186.105 365.536 186.105C367.054 186.105 368.393 186.593 369.866 186.815C370.589 186.925 371.435 186.764 372.123 187.018C372.808 187.272 373.383 187.167 374.088 187.272C375.996 187.554 377.845 187.977 379.769 188.166C380.887 188.276 381.918 188.602 383.015 188.793C384.387 189.034 385.788 189.2 387.148 189.485C387.807 189.622 388.355 190.049 389.012 190.214C389.472 190.328 389.913 190.489 390.369 190.613C391.627 190.956 392.907 191.252 394.173 191.589C395.682 191.992 397.209 192.309 398.681 192.832C399.914 193.271 401.167 193.435 402.377 193.979C403.231 194.364 404.111 194.768 404.925 195.209C405.971 195.776 407.199 195.961 408.209 196.604C409.13 197.19 410.227 197.157 411.176 197.606C411.919 197.957 412.727 198.117 413.459 198.455C413.848 198.636 414.227 198.836 414.625 199.001C415.101 199.198 415.892 199.177 416.248 199.565C416.564 199.909 417.071 199.952 417.339 200.421C417.551 200.793 418.339 201.057 418.714 201.226C419.236 201.461 419.754 201.745 420.147 202.139C420.761 202.752 421.485 203.262 422.106 203.882C422.978 204.754 424.061 205.633 424.731 206.672C425.357 207.643 425.864 208.667 426.531 209.626C426.981 210.272 427.124 210.893 427.241 211.668C427.336 212.294 427.185 212.876 427.153 213.493C427.118 214.147 427.064 214.796 427.038 215.459C427.004 216.33 426.597 217.288 426.417 218.147C426.151 219.415 426.223 220.67 426.011 221.938" stroke="#EE96F9" stroke-linecap="round"/>
<path d="M426.924 217.602C427.954 218.18 429.274 218.294 430.411 218.54C430.744 218.612 431.261 218.666 431.261 219.085" stroke="#EE96F9" stroke-width="5" stroke-linecap="round"/>
<path d="M430.234 221.367C428.564 221.858 426.72 221.967 425.01 222.293C423.956 222.494 422.934 222.737 421.859 222.737C420.916 222.737 419.789 222.807 418.886 223.079C417.805 223.405 416.616 223.363 415.513 223.624C414.432 223.88 413.323 223.992 412.203 223.992C411.585 223.992 410.981 224.22 410.378 224.22" stroke="#EE96F9" stroke-width="3" stroke-linecap="round"/>
<path d="M334 185C335.994 185.069 338.012 185.497 339.907 186.033C341.332 186.436 342.747 186.748 344.216 186.951C345.101 187.073 345.972 187.284 346.857 187.403C347.363 187.472 347.951 187.45 348.428 187.639C349.599 188.103 350.973 188.24 352.19 188.608C353.089 188.88 353.9 189.4 354.779 189.73C355.512 190.006 356.329 190.441 356.899 190.98C357.268 191.33 357.488 191.873 358 192" stroke="#EE96F9" stroke-width="4" stroke-linecap="round"/>
<path d="M396.738 62.0524C380.291 62.2925 363.9 63.0383 347.443 63.0383C343.701 63.0383 339.958 63.0383 336.215 63.0383C334.559 63.0383 332.823 67.2833 331.888 68.4881C325.705 76.4572 319.487 84.0366 315.101 93.1901C312.023 99.613 308.213 105.515 305.05 111.84" stroke="#EE96F9" stroke-linecap="round"/>
<path d="M412.019 128.6C415.27 125.349 418.96 122.372 422.097 119.234C423.169 118.162 424.445 117.315 425.301 116.03C426.211 114.666 427.451 111.518 428.779 110.854" stroke="#EE96F9" stroke-linecap="round"/>
<path d="M334.111 58C326.75 58.7209 317.782 58.5991 310.888 61.6697C308.182 62.8749 305.464 64.5216 302.809 65.8871C300.269 67.1937 295.724 68.9326 294.456 71.8299C293.663 73.6434 293.666 76.1389 293.443 78.0465C292.874 82.9132 291.73 86.5912 289.527 90.9726C286.12 97.7496 282.48 104.305 277.258 109.869C275.463 111.782 273.576 113.574 272 115.675" stroke="#EE96F9" stroke-linecap="round"/>
<path d="M336.781 175.128C336.604 172.998 335.486 171.082 334.899 169.061C334.458 167.541 333.985 165.78 333.212 164.389C332.712 163.488 332.419 162.746 331.817 161.923C331.308 161.226 330.585 160.688 330.13 159.944C329.517 158.941 327.756 158.759 326.723 158.484C323.548 157.637 320.541 156.486 317.314 155.791C311.504 154.538 305.744 153.745 299.988 152.189C294.797 150.786 289.583 149.139 284.154 149.139C282.448 149.139 280.825 149.192 279.125 149.366C274.912 149.797 270.953 151.183 266.698 151.183" stroke="#EE96F9" stroke-width="0.5" stroke-linecap="round"/>
<g filter="url(#filter0_b_6_63)">
<path d="M22.1516 462.089L23.5311 462.678L23.5311 462.678L22.1516 462.089ZM23.1644 459.752L24.481 460.47L24.481 460.47L23.1644 459.752ZM28.0356 450.544L29.3062 451.342L29.3062 451.342L28.0356 450.544ZM32.9792 442.232L34.1455 443.175L34.1455 443.175L32.9792 442.232ZM37.9952 436.924L36.8786 435.923L36.8785 435.923L37.9952 436.924ZM40.045 434.777L39.38 433.433L39.38 433.433L40.045 434.777ZM41.733 434.086L42.4861 435.383L42.4862 435.383L41.733 434.086ZM45.6999 431.772L46.5257 433.024L46.5257 433.024L45.6999 431.772ZM52.5848 427.311L51.8405 426.009L51.8405 426.009L52.5848 427.311ZM58.7221 424.795L59.5696 426.033L59.5696 426.033L58.7221 424.795ZM66.8609 419.965L67.7409 421.179L67.7409 421.179L66.8609 419.965ZM69.4412 418.367L68.6737 417.078L68.6737 417.078L69.4412 418.367ZM73.6373 415.814L73.1346 414.401L73.1346 414.401L73.6373 415.814ZM80.4257 413.405L79.5907 412.159L79.5907 412.159L80.4257 413.405ZM84.6579 411.688L84.175 410.268L84.175 410.268L84.6579 411.688ZM88.5645 409.672L89.0342 411.097L89.0342 411.097L88.5645 409.672ZM92.8811 407.74L93.3691 409.158L93.3691 409.158L92.8811 407.74ZM95.6905 405.844L94.6684 404.746L94.6684 404.746L95.6905 405.844ZM99.1269 404.102L98.3696 402.808L98.3696 402.808L99.1269 404.102ZM108.098 399.189L107.42 397.851L107.42 397.851L108.098 399.189ZM115.284 395.265L114.669 393.897L114.669 393.897L115.284 395.265ZM123.435 391.389L124.184 392.689L124.184 392.689L123.435 391.389ZM129.681 388.705L129.161 387.298L129.161 387.298L129.681 388.705ZM135.589 385.903L136.213 387.267L136.213 387.267L135.589 385.903ZM146.513 380.464L147.159 381.818L147.159 381.818L146.513 380.464ZM151.529 378.46L152.173 379.815L152.173 379.815L151.529 378.46ZM156.207 376.171L155.551 374.822L155.551 374.822L156.207 376.171ZM166.085 372.5L166.814 373.811L166.814 373.811L166.085 372.5ZM176.488 368.061L176.861 369.514L176.861 369.514L176.488 368.061ZM191.825 361.441L191.333 360.024L191.333 360.024L191.825 361.441ZM195.889 360.046L195.37 358.639L195.37 358.639L195.889 360.046ZM199.446 358.257L198.874 356.87L198.874 356.87L199.446 358.257ZM205.299 356.843C205.888 356.26 205.894 355.31 205.311 354.721C204.728 354.132 203.779 354.127 203.19 354.71L205.299 356.843ZM20.5583 466.932C21.0455 466.812 21.3674 466.504 21.5007 466.369C21.6723 466.194 21.8197 465.998 21.9389 465.824C22.1804 465.472 22.4157 465.046 22.6188 464.65C23.0302 463.848 23.3968 462.993 23.5311 462.678L20.772 461.5C20.6394 461.811 20.3083 462.581 19.9492 463.281C19.7672 463.636 19.5991 463.932 19.4637 464.129C19.3945 464.23 19.3601 464.267 19.3621 464.265C19.3644 464.263 19.3957 464.23 19.4562 464.189C19.5119 464.15 19.6418 464.069 19.8382 464.02L20.5583 466.932ZM23.5311 462.678C23.9146 461.78 24.1402 461.095 24.481 460.47L21.8478 459.033C21.4188 459.819 21.0317 460.892 20.772 461.5L23.5311 462.678ZM24.481 460.47C25.3371 458.902 26.1079 457.303 26.8679 455.787C27.6368 454.252 28.4089 452.772 29.3062 451.342L26.7651 449.747C25.7886 451.303 24.9644 452.889 24.1858 454.443C23.3983 456.014 22.6703 457.526 21.8478 459.033L24.481 460.47ZM29.3062 451.342C30.2018 449.914 30.9678 448.388 31.7035 447.023C32.458 445.623 33.2102 444.331 34.1455 443.175L31.813 441.288C30.6955 442.67 29.8364 444.164 29.0625 445.6C28.2698 447.071 27.5904 448.432 26.7651 449.747L29.3062 451.342ZM34.1455 443.175C34.8707 442.278 35.6637 441.459 36.5114 440.609C37.3452 439.772 38.2496 438.887 39.1118 437.926L36.8785 435.923C36.0839 436.809 35.2576 437.617 34.3863 438.491C33.5289 439.352 32.6423 440.263 31.8129 441.288L34.1455 443.175ZM39.1118 437.926C39.2966 437.72 39.4759 437.491 39.6288 437.294C39.7923 437.083 39.9337 436.899 40.0819 436.721C40.3988 436.341 40.5988 436.177 40.7099 436.122L39.38 433.433C38.6704 433.784 38.1347 434.371 37.7765 434.801C37.5872 435.029 37.4062 435.265 37.2594 435.454C37.102 435.656 36.983 435.806 36.8786 435.923L39.1118 437.926ZM40.7099 436.122C40.8812 436.037 41.0635 435.976 41.3897 435.862C41.6784 435.761 42.0839 435.616 42.4861 435.383L40.9799 432.789C40.8482 432.865 40.684 432.931 40.3992 433.03C40.1519 433.117 39.7572 433.246 39.38 433.433L40.7099 436.122ZM42.4862 435.383C43.7263 434.663 45.1912 433.904 46.5257 433.024L44.8742 430.52C43.6271 431.342 42.4055 431.961 40.9799 432.789L42.4862 435.383ZM46.5257 433.024C48.9107 431.452 50.9698 429.962 53.3291 428.614L51.8405 426.009C49.3714 427.42 47.1245 429.036 44.8742 430.52L46.5257 433.024ZM53.3291 428.614C54.1191 428.162 55.0097 427.899 56.1296 427.548C57.1844 427.217 58.4374 426.808 59.5696 426.033L57.8746 423.557C57.1547 424.05 56.3015 424.35 55.232 424.685C54.2276 425 52.9756 425.36 51.8405 426.009L53.3291 428.614ZM59.5696 426.033C60.7939 425.194 62.1063 424.494 63.5132 423.732C64.8944 422.984 66.3591 422.181 67.7409 421.179L65.9809 418.75C64.7781 419.621 63.4756 420.341 62.0846 421.094C60.7194 421.834 59.2547 422.612 57.8746 423.557L59.5696 426.033ZM67.7409 421.179C68.4911 420.636 69.2714 420.214 70.2088 419.655L68.6737 417.078C67.8668 417.558 66.8761 418.101 65.9809 418.75L67.7409 421.179ZM70.2088 419.655C70.9307 419.225 71.7163 418.646 72.3312 418.228C73.0067 417.77 73.5882 417.424 74.1399 417.228L73.1346 414.401C72.2051 414.732 71.3621 415.26 70.6466 415.746C69.8705 416.273 69.2988 416.706 68.6737 417.078L70.2088 419.655ZM74.1399 417.228C75.2296 416.84 76.2319 416.637 77.5114 416.275C78.7154 415.935 80.0171 415.485 81.2606 414.651L79.5907 412.159C78.7355 412.732 77.7882 413.079 76.6952 413.388C75.6777 413.676 74.3352 413.974 73.1346 414.401L74.1399 417.228ZM81.2606 414.651C82.2441 413.992 83.5978 413.633 85.1407 413.108L84.175 410.268C82.9562 410.682 81.0054 411.211 79.5907 412.159L81.2606 414.651ZM85.1407 413.108C86.0217 412.808 86.7975 412.322 87.3999 411.951C88.0564 411.547 88.539 411.26 89.0342 411.097L88.0948 408.248C87.2106 408.539 86.4333 409.024 85.828 409.396C85.1687 409.802 84.6808 410.096 84.175 410.268L85.1407 413.108ZM89.0342 411.097C89.9027 410.81 90.7047 410.404 91.3964 410.054C92.1212 409.687 92.7343 409.377 93.3691 409.158L92.3931 406.322C91.5283 406.619 90.7278 407.03 90.0415 407.377C89.3222 407.741 88.7157 408.043 88.0948 408.248L89.0342 411.097ZM93.3691 409.158C94.8926 408.634 95.7969 407.794 96.7126 406.942L94.6684 404.746C93.7583 405.593 93.259 406.024 92.3931 406.322L93.3691 409.158ZM96.7126 406.942C96.9846 406.688 97.3448 406.501 97.9088 406.274C98.4036 406.075 99.1946 405.801 99.8842 405.397L98.3696 402.808C97.9317 403.064 97.4887 403.209 96.7892 403.491C96.1589 403.744 95.3646 404.098 94.6684 404.746L96.7126 406.942ZM99.8842 405.397C102.791 403.697 105.779 402.045 108.776 400.527L107.42 397.851C104.359 399.401 101.317 401.084 98.3696 402.808L99.8842 405.397ZM108.776 400.527C110.045 399.884 111.266 399.154 112.423 398.481C113.599 397.797 114.727 397.16 115.899 396.633L114.669 393.897C113.342 394.493 112.097 395.2 110.915 395.888C109.713 396.587 108.59 397.258 107.42 397.851L108.776 400.527ZM115.899 396.633C118.554 395.44 121.518 394.224 124.184 392.689L122.686 390.089C120.193 391.525 117.455 392.644 114.669 393.897L115.899 396.633ZM124.184 392.689C126.074 391.6 127.98 390.933 130.201 390.112L129.161 387.298C127.022 388.089 124.844 388.846 122.686 390.089L124.184 392.689ZM130.201 390.112C131.305 389.704 132.351 389.197 133.336 388.699C134.344 388.188 135.26 387.702 136.213 387.267L134.965 384.538C133.94 385.007 132.923 385.545 131.981 386.022C131.017 386.51 130.097 386.952 129.161 387.298L130.201 390.112ZM136.213 387.267C138.101 386.404 139.941 385.468 141.749 384.539C143.567 383.606 145.348 382.682 147.159 381.818L145.867 379.11C144.006 379.998 142.179 380.946 140.379 381.87C138.571 382.799 136.785 383.706 134.965 384.538L136.213 387.267ZM147.159 381.818C147.896 381.466 148.672 381.183 149.53 380.872C150.364 380.57 151.28 380.24 152.173 379.815L150.885 377.106C150.144 377.458 149.365 377.741 148.507 378.052C147.672 378.355 146.758 378.685 145.867 379.11L147.159 381.818ZM152.173 379.815C153.746 379.068 155.336 378.263 156.864 377.519L155.551 374.822C153.955 375.599 152.452 376.361 150.885 377.106L152.173 379.815ZM156.864 377.519C158.39 376.776 159.923 376.341 161.608 375.839C163.26 375.347 165.042 374.795 166.814 373.811L165.357 371.189C163.901 371.997 162.403 372.472 160.752 372.964C159.135 373.445 157.343 373.949 155.551 374.822L156.864 377.519ZM166.814 373.811C169.832 372.135 173.661 370.334 176.861 369.514L176.116 366.608C172.549 367.522 168.459 369.466 165.357 371.189L166.814 373.811ZM176.861 369.514C179.748 368.773 182.391 367.509 184.89 366.256C187.43 364.983 189.798 363.734 192.318 362.858L191.333 360.024C188.581 360.981 185.997 362.345 183.545 363.575C181.052 364.825 178.662 365.954 176.116 366.608L176.861 369.514ZM192.318 362.858C193.601 362.412 195.06 361.95 196.408 361.453L195.37 358.639C194.036 359.13 192.75 359.532 191.333 360.024L192.318 362.858ZM196.408 361.453C197.164 361.174 197.84 360.798 198.413 360.475C199.016 360.135 199.502 359.856 200.017 359.644L198.874 356.87C198.153 357.167 197.491 357.551 196.939 357.862C196.358 358.19 195.873 358.453 195.37 358.639L196.408 361.453ZM200.017 359.644C200.72 359.354 201.795 358.974 202.611 358.607C203.517 358.2 204.465 357.668 205.299 356.843L203.19 354.71C202.709 355.185 202.116 355.54 201.38 355.871C200.554 356.243 199.887 356.453 198.874 356.87L200.017 359.644Z" fill="#EE96F9"/>
</g>
</g>
<defs>
<filter id="filter0_b_6_63" x="15.3621" y="350.276" width="194.383" height="120.656" filterUnits="userSpaceOnUse" color-interpolation-filters="sRGB">
<feFlood flood-opacity="0" result="BackgroundImageFix"/>
<feGaussianBlur in="BackgroundImageFix" stdDeviation="2"/>
<feComposite in2="SourceAlpha" operator="in" result="effect1_backgroundBlur_6_63"/>
<feBlend mode="normal" in="SourceGraphic" in2="effect1_backgroundBlur_6_63" result="shape"/>
</filter>
<linearGradient id="paint0_linear_6_63" x1="298.949" y1="150.585" x2="298.949" y2="205.965" gradientUnits="userSpaceOnUse">
<stop stop-color="#C0139A"/>
<stop offset="0.827076" stop-color="#1B1C20" stop-opacity="0.258879"/>
<stop offset="1" stop-color="#132DB4" stop-opacity="0"/>
</linearGradient>
<linearGradient id="paint1_linear_6_63" x1="409.574" y1="202.305" x2="395.386" y2="251.783" gradientUnits="userSpaceOnUse">
<stop stop-color="#C0139A"/>
<stop offset="0.827076" stop-color="#1B1C20" stop-opacity="0.258879"/>
<stop offset="1" stop-color="#132DB4" stop-opacity="0"/>
</linearGradient>
<clipPath id="clip0_6_63">
<rect width="559" height="500" fill="white"/>
</clipPath>
</defs>
</svg>
